<svg xmlns="http://www.w3.org/2000/svg" xmlns:xlink="http://www.w3.org/1999/xlink" preserveAspectRatio="xMidYMid" width="18" height="10.97" viewBox="0 0 18 10.97">
  <defs>
    <style>
      .cls-1 {
        fill: #fff;
        fill-rule: evenodd;
      }
    </style>
  </defs>
  <path d="M11.159,1.058 L16.702,1.058 L16.702,2.158 L11.159,2.158 L11.159,1.058 ZM14.093,2.732 C16.823,2.732 18.142,5.173 17.988,7.577 L12.200,7.577 C12.262,8.937 12.945,9.354 14.170,9.354 C15.055,9.354 15.769,9.199 15.909,8.714 L17.848,8.714 C17.228,10.559 15.909,10.971 14.093,10.971 C11.564,10.971 9.997,9.278 9.997,6.859 C9.997,4.516 11.657,2.732 14.093,2.732 ZM15.784,6.420 C15.583,5.332 15.101,4.350 14.031,4.350 C12.634,4.350 12.231,5.816 12.200,6.420 L15.784,6.420 ZM9.279,7.731 C9.279,9.924 7.370,10.862 5.369,10.862 L-0.000,10.862 L-0.000,-0.001 L5.214,-0.001 C7.324,-0.001 8.751,0.732 8.751,2.743 C8.751,3.802 8.208,4.542 7.246,4.996 C8.596,5.373 9.279,6.387 9.279,7.731 ZM4.717,1.911 L2.227,1.911 L2.227,4.436 L4.903,4.436 C5.757,4.436 6.393,4.059 6.393,3.151 C6.393,2.124 5.585,1.911 4.717,1.911 ZM5.089,6.053 L2.227,6.053 L2.227,9.017 L5.043,9.017 C6.005,9.017 6.842,8.715 6.842,7.596 C6.842,6.492 6.129,6.053 5.089,6.053 Z" class="cls-1"/>
</svg>
