<svg xmlns="http://www.w3.org/2000/svg" xmlns:xlink="http://www.w3.org/1999/xlink" preserveAspectRatio="xMidYMid" width="15" height="15.97" viewBox="0 0 15 15.97">
  <defs>
    <style>
      .cls-1 {
        fill: #fff;
        fill-rule: evenodd;
      }
    </style>
  </defs>
  <path d="M13.046,3.015 L13.046,4.985 L12.028,4.985 L12.028,3.015 L10.036,3.015 L10.036,1.996 L12.028,1.996 L12.028,0.030 L13.046,0.030 L13.046,1.996 L15.005,1.996 L15.005,3.015 L13.046,3.015 ZM7.810,0.648 C7.810,0.648 9.225,1.522 9.225,3.232 C9.225,4.941 8.398,5.686 7.353,6.606 C6.307,7.526 6.918,8.074 8.551,9.234 C10.183,10.394 10.640,12.962 8.529,14.823 C6.417,16.685 -0.006,16.435 -0.006,12.981 C-0.006,9.527 4.827,9.474 5.221,9.474 C5.611,9.474 5.678,9.365 5.350,9.014 C5.023,8.665 4.500,7.986 5.111,7.241 C4.021,7.285 1.017,6.694 1.017,3.932 C1.017,1.172 3.913,-0.010 4.957,-0.010 C6.003,-0.010 9.160,-0.010 10.161,-0.010 C10.161,-0.010 9.923,0.188 9.378,0.493 C8.833,0.800 7.810,0.648 7.810,0.648 ZM1.843,12.345 C1.843,13.945 2.998,15.018 5.151,15.018 C7.304,15.018 8.572,14.296 8.572,12.806 C8.572,11.314 7.148,10.570 6.351,9.957 C3.412,9.957 1.843,10.745 1.843,12.345 ZM4.740,0.516 C1.691,0.516 2.867,6.561 5.459,6.561 C8.898,6.561 7.113,0.428 4.740,0.516 Z" class="cls-1"/>
</svg>
