<svg xmlns="http://www.w3.org/2000/svg" xmlns:xlink="http://www.w3.org/1999/xlink" preserveAspectRatio="xMidYMid" width="16" height="16" viewBox="0 0 16 16">
  <defs>
    <style>
      .cls-1 {
        fill: #fff;
        fill-rule: evenodd;
      }
    </style>
  </defs>
  <path d="M14.400,-0.001 L1.600,-0.001 C0.720,-0.001 -0.000,0.719 -0.000,1.599 L-0.000,14.398 C-0.000,15.279 0.720,15.999 1.600,15.999 L14.400,15.999 C15.280,15.999 16.000,15.279 16.000,14.398 L16.000,1.599 C16.000,0.719 15.280,-0.001 14.400,-0.001 ZM8.000,4.799 C9.760,4.799 11.200,6.239 11.200,7.999 C11.200,9.759 9.760,11.198 8.000,11.198 C6.240,11.198 4.800,9.759 4.800,7.999 C4.800,6.239 6.240,4.799 8.000,4.799 ZM2.000,14.398 C1.760,14.398 1.600,14.238 1.600,13.998 L1.600,7.199 L3.280,7.199 C3.200,7.439 3.200,7.759 3.200,7.999 C3.200,10.638 5.360,12.799 8.000,12.799 C10.640,12.799 12.800,10.638 12.800,7.999 C12.800,7.759 12.800,7.439 12.720,7.199 L14.400,7.199 L14.400,13.998 C14.400,14.238 14.240,14.398 14.000,14.398 L2.000,14.398 ZM14.400,3.599 C14.400,3.838 14.240,3.999 14.000,3.999 L12.400,3.999 C12.160,3.999 12.000,3.838 12.000,3.599 L12.000,1.999 C12.000,1.758 12.160,1.599 12.400,1.599 L14.000,1.599 C14.240,1.599 14.400,1.758 14.400,1.999 L14.400,3.599 Z" class="cls-1"/>
</svg>
