<svg xmlns="http://www.w3.org/2000/svg" xmlns:xlink="http://www.w3.org/1999/xlink" preserveAspectRatio="xMidYMid" width="16" height="15.97" viewBox="0 0 16 15.97">
  <defs>
    <style>
      .cls-1 {
        fill: #fff;
        fill-rule: evenodd;
      }
    </style>
  </defs>
  <path d="M7.988,-0.011 C3.570,-0.011 -0.012,3.563 -0.012,7.973 C-0.012,11.259 1.978,14.082 4.821,15.307 C4.800,14.751 4.820,14.087 4.962,13.485 C5.116,12.835 5.995,9.119 5.995,9.119 C5.995,9.119 5.739,8.607 5.739,7.850 C5.739,6.664 6.429,5.777 7.287,5.777 C8.017,5.777 8.370,6.325 8.370,6.981 C8.370,7.713 7.902,8.808 7.661,9.824 C7.460,10.674 8.089,11.368 8.929,11.368 C10.449,11.368 11.473,9.417 11.473,7.106 C11.473,5.350 10.290,4.035 8.134,4.035 C5.698,4.035 4.180,5.848 4.180,7.873 C4.180,8.571 4.387,9.065 4.710,9.445 C4.858,9.620 4.879,9.691 4.825,9.892 C4.786,10.039 4.699,10.394 4.662,10.535 C4.608,10.738 4.443,10.810 4.260,10.735 C3.138,10.278 2.615,9.053 2.615,7.675 C2.615,5.398 4.539,2.668 8.353,2.668 C11.420,2.668 13.436,4.881 13.436,7.259 C13.436,10.403 11.685,12.750 9.104,12.750 C8.237,12.750 7.422,12.282 7.143,11.753 C7.143,11.753 6.677,13.597 6.579,13.954 C6.410,14.563 6.085,15.172 5.784,15.650 C6.483,15.850 7.223,15.957 7.988,15.957 C12.406,15.957 15.988,12.382 15.988,7.973 C15.988,3.563 12.406,-0.011 7.988,-0.011 Z" class="cls-1"/>
</svg>
