<svg xmlns="http://www.w3.org/2000/svg" xmlns:xlink="http://www.w3.org/1999/xlink" preserveAspectRatio="xMidYMid" width="16" height="12.97" viewBox="0 0 16 12.97">
  <defs>
    <style>
      .cls-1 {
        fill: #fff;
        fill-rule: evenodd;
      }
    </style>
  </defs>
  <path d="M16.000,1.558 C15.731,1.705 14.922,2.002 14.168,2.076 C14.651,1.815 15.367,0.964 15.544,0.286 C15.079,0.582 14.012,1.014 13.484,1.014 C13.484,1.014 13.484,1.015 13.486,1.016 C12.884,0.389 12.038,-0.002 11.099,-0.002 C9.277,-0.002 7.798,1.473 7.798,3.292 C7.798,3.545 7.828,3.791 7.883,4.026 L7.882,4.026 C5.409,3.963 2.519,2.726 0.890,0.609 C-0.110,2.338 0.755,4.260 1.891,4.960 C1.503,4.991 0.786,4.917 0.449,4.590 C0.426,5.737 0.980,7.257 2.995,7.808 C2.607,8.017 1.921,7.957 1.621,7.912 C1.727,8.882 3.086,10.149 4.571,10.149 C4.042,10.759 2.235,11.869 0.000,11.515 C1.519,12.439 3.289,12.972 5.163,12.972 C10.488,12.972 14.624,8.665 14.401,3.352 C14.401,3.346 14.399,3.339 14.399,3.334 C14.399,3.319 14.401,3.304 14.401,3.292 C14.401,3.276 14.399,3.260 14.399,3.243 C14.884,2.913 15.534,2.328 16.000,1.558 Z" class="cls-1"/>
</svg>
